# Blender v2.77 (sub 0) OBJ File: ''
# www.blender.org
mtllib sphere.mtl
o Icosphere
v 0.000000 -2.000000 0.000000
v 1.447215 -0.894439 1.051451
v -0.552776 -0.894440 1.701298
v -1.788852 -0.894431 0.000000
v -0.552776 -0.894440 -1.701298
v 1.447215 -0.894439 -1.051451
v 0.552776 0.894440 1.701298
v -1.447215 0.894439 1.051451
v -1.447215 0.894439 -1.051451
v 0.552776 0.894440 -1.701298
v 1.788852 0.894431 0.000000
v 0.000000 2.000000 0.000000
v -0.324911 -1.701309 0.999991
v 0.850645 -1.701308 0.618023
v 0.525738 -1.051475 1.618023
v 1.701296 -1.051472 0.000000
v 0.850645 -1.701308 -0.618023
v -1.051460 -1.701303 0.000000
v -1.376379 -1.051472 0.999994
v -0.324911 -1.701309 -0.999991
v -1.376379 -1.051472 -0.999994
v 0.525738 -1.051475 -1.618023
v 1.902116 0.000000 0.618025
v 1.902116 0.000000 -0.618025
v 0.000000 0.000000 2.000000
v 1.175571 0.000000 1.618033
v -1.902116 0.000000 0.618025
v -1.175571 0.000000 1.618033
v -1.175571 0.000000 -1.618033
v -1.902116 0.000000 -0.618025
v 1.175571 0.000000 -1.618033
v 0.000000 0.000000 -2.000000
v 1.376379 1.051472 0.999994
v -0.525738 1.051475 1.618023
v -1.701296 1.051472 0.000000
v -0.525738 1.051475 -1.618023
v 1.376379 1.051472 -0.999994
v 0.324911 1.701309 0.999991
v 1.051460 1.701303 0.000000
v -0.850645 1.701308 0.618023
v -0.850645 1.701308 -0.618023
v 0.324911 1.701309 -0.999991
vt 0.2487 0.8441
vt 0.1939 0.6807
vt 0.3250 0.7138
vt 0.1273 0.5432
vt 0.0477 0.6807
vt 0.3311 0.9111
vt 0.2039 1.0000
vt 0.1191 0.8576
vt 0.0171 0.5369
vt 0.4436 0.4429
vt 0.4045 0.5369
vt 0.3354 0.3710
vt 0.6616 0.2684
vt 0.5590 0.3710
vt 0.5590 0.1659
vt 0.7514 0.1536
vt 0.8813 0.1465
vt 0.8020 0.3196
vt 0.1082 0.4429
vt 0.0000 0.3710
vt 0.0955 0.2684
vt 0.7973 0.9972
vt 0.7142 0.8637
vt 0.8603 0.8565
vt 0.4309 0.2684
vt 0.6708 0.1025
vt 0.6719 0.2800
vt 0.2236 0.3710
vt 0.9108 0.6905
vt 0.7810 0.6834
vt 0.8620 0.5369
vt 0.6623 0.8441
vt 0.6046 1.0000
vt 0.5432 0.8576
vt 0.5350 0.5432
vt 0.6145 0.6807
vt 0.4684 0.6807
vt 0.1082 0.0940
vt 0.0691 0.0000
vt 0.2073 0.0000
vt 0.3262 0.2684
vt 0.2236 0.1659
vt 0.3354 0.1025
vt 0.3311 0.9111
vt 0.3373 0.7138
vt 0.4136 0.8441
vt 0.4086 0.5369
vt 0.4584 1.0000
vt 0.9915 0.6194
vt 0.7159 0.5441
vt 0.6623 0.7028
vt 0.0000 0.1659
vt 0.7386 0.4603
vt 0.8650 0.4603
vt 0.6452 0.5369
vt 0.5427 0.0000
vt 0.4436 0.0940
vt 0.3354 0.1659
vt 0.9904 0.8169
vt 0.6708 0.0825
vt 0.9481 0.3268
vt 1.0000 0.1659
vt 0.9237 0.9972
vt 0.3354 0.4344
vt 0.2073 0.5369
vt 0.0577 1.0000
vt 0.0000 0.8441
vt 0.8003 0.0000
vt 0.9463 0.0072
vt 0.6708 0.4344
vt 0.5427 0.5369
vt 0.2537 0.5369
vn 0.0000 -1.0000 0.0000
vn 0.4253 -0.8506 0.3090
vn -0.1625 -0.8506 0.5000
vn 0.7236 -0.4472 0.5257
vn 0.8506 -0.5257 0.0000
vn -0.5257 -0.8506 0.0000
vn -0.1625 -0.8506 -0.5000
vn 0.4253 -0.8506 -0.3090
vn 0.9510 0.0000 0.3090
vn -0.2764 -0.4472 0.8506
vn 0.2629 -0.5257 0.8090
vn 0.0000 0.0000 1.0000
vn -0.8944 -0.4472 0.0000
vn -0.6882 -0.5257 0.5000
vn -0.9510 0.0000 0.3090
vn -0.2764 -0.4472 -0.8506
vn -0.6882 -0.5257 -0.5000
vn -0.5878 0.0000 -0.8090
vn 0.7236 -0.4472 -0.5257
vn 0.2629 -0.5257 -0.8090
vn 0.5878 0.0000 -0.8090
vn 0.5878 0.0000 0.8090
vn -0.5878 0.0000 0.8090
vn -0.9510 0.0000 -0.3090
vn 0.0000 0.0000 -1.0000
vn 0.9510 0.0000 -0.3090
vn 0.2764 0.4472 0.8506
vn 0.6882 0.5257 0.5000
vn 0.1625 0.8506 0.5000
vn -0.7236 0.4472 0.5257
vn -0.2629 0.5257 0.8090
vn -0.4253 0.8506 0.3090
vn -0.7236 0.4472 -0.5257
vn -0.8506 0.5257 0.0000
vn -0.4253 0.8506 -0.3090
vn 0.2764 0.4472 -0.8506
vn -0.2629 0.5257 -0.8090
vn 0.1625 0.8506 -0.5000
vn 0.8944 0.4472 0.0000
vn 0.6882 0.5257 -0.5000
vn 0.5257 0.8506 0.0000
vn 0.0000 1.0000 0.0000
usemtl stone_sphere
s 1
f 1/1/1 14/2/2 13/3/3
f 2/4/4 14/2/2 16/5/5
f 1/1/1 13/3/3 18/6/6
f 1/1/1 18/6/6 20/7/7
f 1/1/1 20/7/7 17/8/8
f 2/4/4 16/5/5 23/9/9
f 3/10/10 15/11/11 25/12/12
f 4/13/13 19/14/14 27/15/15
f 5/16/16 21/17/17 29/18/18
f 6/19/19 22/20/20 31/21/21
f 2/22/4 23/23/9 26/24/22
f 3/10/10 25/12/12 28/25/23
f 4/13/13 27/15/15 30/26/24
f 5/16/16 29/18/18 32/27/25
f 6/19/19 31/21/21 24/28/26
f 7/29/27 33/30/28 38/31/29
f 8/32/30 34/33/31 40/34/32
f 9/35/33 35/36/34 41/37/35
f 10/38/36 36/39/37 42/40/38
f 11/41/39 37/42/40 39/43/41
f 39/44/41 42/45/38 12/46/42
f 39/43/41 37/42/40 42/40/38
f 37/42/40 10/38/36 42/40/38
f 42/45/38 41/37/35 12/46/42
f 42/45/38 36/47/37 41/37/35
f 36/47/37 9/35/33 41/37/35
f 41/37/35 40/34/32 12/46/42
f 41/37/35 35/36/34 40/34/32
f 35/36/34 8/32/30 40/34/32
f 40/34/32 38/48/29 12/46/42
f 40/34/32 34/33/31 38/48/29
f 34/49/31 7/29/27 38/31/29
f 38/48/29 39/44/41 12/46/42
f 38/31/29 33/30/28 39/50/41
f 33/30/28 11/51/39 39/50/41
f 24/28/26 37/42/40 11/41/39
f 24/28/26 31/21/21 37/42/40
f 31/21/21 10/38/36 37/42/40
f 32/52/25 36/39/37 10/38/36
f 32/27/25 29/18/18 36/53/37
f 29/18/18 9/54/33 36/53/37
f 30/55/24 35/36/34 9/35/33
f 30/26/24 27/15/15 35/56/34
f 27/15/15 8/57/30 35/56/34
f 28/25/23 34/58/31 8/57/30
f 28/25/23 25/12/12 34/58/31
f 25/59/12 7/29/27 34/49/31
f 26/24/22 33/30/28 7/29/27
f 26/24/22 23/23/9 33/30/28
f 23/23/9 11/51/39 33/30/28
f 31/21/21 32/52/25 10/38/36
f 31/21/21 22/20/20 32/52/25
f 22/60/20 5/16/16 32/27/25
f 29/18/18 30/61/24 9/54/33
f 29/18/18 21/17/17 30/61/24
f 21/17/17 4/62/13 30/61/24
f 27/15/15 28/25/23 8/57/30
f 27/15/15 19/14/14 28/25/23
f 19/14/14 3/10/10 28/25/23
f 25/59/12 26/24/22 7/29/27
f 25/59/12 15/63/11 26/24/22
f 15/63/11 2/22/4 26/24/22
f 23/64/9 24/28/26 11/41/39
f 23/64/9 16/65/5 24/28/26
f 16/65/5 6/19/19 24/28/26
f 17/8/8 22/66/20 6/67/19
f 17/8/8 20/7/7 22/66/20
f 20/68/7 5/16/16 22/60/20
f 20/68/7 21/17/17 5/16/16
f 20/68/7 18/69/6 21/17/17
f 18/69/6 4/62/13 21/17/17
f 18/70/6 19/14/14 4/13/13
f 18/70/6 13/71/3 19/14/14
f 13/71/3 3/10/10 19/14/14
f 16/5/5 17/8/8 6/67/19
f 16/5/5 14/2/2 17/8/8
f 14/2/2 1/1/1 17/8/8
f 13/71/3 15/11/11 3/10/10
f 13/3/3 14/2/2 15/72/11
f 14/2/2 2/4/4 15/72/11
